<svg width="144" height="48" viewBox="0 0 144 48" fill="none" xmlns="http://www.w3.org/2000/svg">
<path d="M57 9.80346H63V33H69V4H63C59.7045 4 57 6.59857 57 9.80346Z" fill="white"/>
<path d="M75 33H80V21.006C80 17.7072 77.7463 15 75 15V33Z" fill="white"/>
<path d="M86 15V32.9821H92V21H98V27C98 30.2955 100.704 33 104 33V21C104 17.7045 101.296 15 98 15H86Z" fill="white"/>
<path d="M138.164 15H132.328V9C132.328 5.70448 129.697 3 126.491 3V26.9821H114.836V21H120.672V15H114.836C111.631 15 109 17.7045 109 21V27C109 30.2955 111.631 33 114.836 33H132.328V21H138.164V27C138.164 30.2955 140.794 33 144 33V21C144 17.7045 141.369 15 138.164 15Z" fill="white"/>
<path d="M75 9H80C80 6.25373 77.7463 4 75 4V9Z" fill="white"/>
<path d="M65 42H63V38H64.9424V38.652H63.5899V39.6388H64.7986V40.2907H63.5899V41.3304H65V42Z" fill="white"/>
<path d="M76.0599 38H76.9447L75.4885 39.9559L77 42H76.1152L74.9908 40.5022L73.8848 42H73L74.5115 39.9559L73.0737 38H73.9585L75.0092 39.4449L76.0599 38Z" fill="white"/>
<path d="M87.6718 41.0598L88 41.5726C87.8564 41.7094 87.6308 41.812 87.3436 41.8803C87.0564 41.9658 86.7692 42 86.4615 42C85.7231 42 85.1282 41.812 84.6769 41.453C84.2257 41.094 84 40.5983 84 40C84 39.4188 84.2256 38.9402 84.6564 38.5641C85.0872 38.188 85.6821 38 86.4615 38C87.0769 38 87.5692 38.1368 87.918 38.3932L87.5487 38.906C87.2205 38.735 86.8718 38.6496 86.4615 38.6496C86.0103 38.6496 85.6205 38.7692 85.3333 39.0256C85.0462 39.265 84.9026 39.6068 84.9026 40.0171C84.9026 40.4274 85.0462 40.7521 85.3539 41.0085C85.6615 41.265 86.0718 41.3846 86.5436 41.3846C86.9539 41.3675 87.3436 41.265 87.6718 41.0598Z" fill="white"/>
<path d="M99 42H98.3492V40.2907H96.6508V42H96V38H96.6508V39.6388H98.3492V38H99V42Z" fill="white"/>
<path d="M107.701 42H107L108.692 38H109.308L111 42H110.248L109.838 40.9825H108.128L107.701 42ZM109.547 40.3333L108.966 38.9123L108.385 40.3333H109.547Z" fill="white"/>
<path d="M122 38V42H121.505L119.57 39.2335V42H119V38H119.495L121.43 40.7841V38H122Z" fill="white"/>
<path d="M133.273 40.4957H132.182V39.8632H134V41.4701C133.809 41.641 133.56 41.7778 133.234 41.8633C132.909 41.9658 132.603 42 132.335 42C131.608 42 131.033 41.812 130.612 41.453C130.191 41.094 130 40.6154 130 40C130 39.4359 130.211 38.9573 130.612 38.5812C131.014 38.2051 131.569 38 132.239 38C132.813 38 133.292 38.1368 133.675 38.3932L133.349 38.9402C133.234 38.8547 133.081 38.7692 132.909 38.718C132.718 38.6667 132.545 38.6325 132.335 38.6325C131.895 38.6325 131.531 38.7521 131.244 38.9915C130.976 39.2308 130.823 39.5727 130.823 39.9829C130.823 40.3932 130.957 40.7179 131.244 40.9744C131.512 41.2137 131.876 41.3504 132.354 41.3504C132.507 41.3504 132.699 41.3162 132.871 41.265C133.062 41.2137 133.196 41.1453 133.273 41.0769V40.4957Z" fill="white"/>
<path d="M144 42H142V38H143.942V38.652H142.59V39.6388H143.799V40.2907H142.59V41.3304H144V42Z" fill="white"/>
<path d="M12.4069 26.2885L13.7576 16.1381L2 7.99014L12.7359 11.6153L15.2641 7.7312L24.5281 2L44.9437 13.2035L46 30.3107L36.9091 42.9125L29.7229 44L33.4459 37.2158V30.6905L30.7446 25.598L27.9913 23.7854L23.7662 28.1184V32.7102L20.4762 35.783L16.2857 36.2836L14.4329 37.3366L11.3853 36.3699L10.1212 31.8126L12.4069 28.619V26.2885Z" fill="white"/>
<path d="M31 7.4264C28.8678 6.87333 26.5207 7.01672 26.5207 7.01672C26.5207 7.01672 25.7603 11.4208 21 12.5679C21.0331 12.5679 27.2975 15.2103 31 7.4264Z" fill="white"/>
<path d="M33.6195 41.7572C36.3854 39.6416 38.4597 36.7283 39.4171 33.4162C39.4526 33.2948 39.8426 33.0694 40.1086 32.9133C40.5341 32.6532 40.9773 32.4451 41.066 32.1156C41.2433 31.1445 41.3319 30.1214 41.3319 29.1156C41.3319 28.7341 40.9419 28.3526 40.5518 27.9711C40.2504 27.711 39.949 27.4162 39.949 27.2081C39.5235 23.3584 37.6974 19.7514 34.8074 17.1329L34.506 17.4277C37.325 20.0116 39.1335 23.5144 39.5235 27.2428C39.559 27.5896 39.9135 27.9191 40.2504 28.2659C40.5518 28.526 40.9064 28.9075 40.9064 29.0636C40.9064 30.0347 40.8178 31.0058 40.6405 31.9769C40.605 32.1503 40.215 32.3237 39.9136 32.4798C39.488 32.6879 39.098 32.896 39.0093 33.2428C37.9633 36.8324 35.5875 39.9711 32.4317 42C32.999 40.8208 34.772 36.9711 35.7116 35.0116L35.5343 28.7514L30.0382 23.5491L26.9177 23.9653L23.4959 29.3757C23.4959 29.3757 25.0916 31.3699 22.8399 33.6936C20.6415 35.9827 18.904 36.4855 18.904 36.4855L17.3083 35.6358C17.787 35.0462 18.7444 34.1618 19.4713 33.5549C20.7301 32.5318 21.9889 32.4624 21.9889 31.3526C22.0244 29.0636 19.5245 29.7052 19.5245 29.7052L18.6203 30.5549L18.2302 33.6936L16.3332 36.0173L16.1204 35.9827L13 35.3064C13 35.3064 14.8971 34.3353 15.1985 33.2254C15.4999 32.1676 14.5957 28.6474 14.5425 28.4393C14.5779 28.474 15.4467 29.2023 15.8367 30.3815C16.5282 28.526 17.4324 26.7399 17.6983 26.5665C17.9643 26.3931 21.457 24.5723 21.457 24.5723L20.2869 27.5723L21.1556 27.104L23.23 22.1098C23.23 22.1098 25.2689 21.1387 26.7759 21.1387C29.5063 21.104 33.5309 17.8439 31.7047 12C32.2189 12.2081 41.2255 16.6127 42.7857 25.2486C43.9736 31.9422 40.1263 38.1676 33.6195 41.7572Z" fill="white"/>
<path d="M23.318 8.71058C24.3162 7.61974 23.9241 6 23.9241 6L21.0009 9.99976C20.9652 9.99976 22.0525 10.0493 23.318 8.71058Z" fill="#1B314F"/>
<path d="M14.2723 31.7812L14.6361 30C14.6361 30 13.1624 32.5809 13.0351 32.9263C12.9077 33.3261 13.126 34.035 13.7082 33.9987C14.2904 33.9623 15 33.108 15 32.4901C14.9818 31.6903 14.2723 31.7812 14.2723 31.7812Z" fill="#1B314F"/>
<path d="M39.112 4.99652C39.112 4.99652 41.2568 5.0827 43.4894 5.34123C38.4615 1.46316 33.7149 0.342829 29.8473 0.342829C24.5206 0.342829 20.9167 2.48008 20.7057 2.61796L22.3758 0.0153484C22.3758 0.0153484 15.6778 -0.62238 13.3221 6.32367C12.7244 4.85863 12.1618 2.70414 12.1618 2.70414C12.1618 2.70414 8.68101 5.68595 10.3159 10.6499C6.32529 9.2193 0.611784 7.23718 0.400824 7.2027C0.101963 7.16823 0.014064 7.28888 0.014064 7.28888C0.014064 7.28888 -0.073836 7.40953 0.189864 7.6336C0.664524 8.01279 9.66549 14.5279 11.652 15.8034C11.2301 17.3202 11.2301 18.0268 11.652 18.7507C12.2497 19.7159 12.3025 20.2158 12.2146 20.9397C12.1267 21.6464 11.3532 27.834 11.1774 28.5924C11.0016 29.3508 9.20841 32.0396 9.29631 32.8497C9.38421 33.6425 10.4917 37.0552 11.4762 37.4344C12.197 37.693 14.0077 38.2273 15.2032 38.2273C15.6251 38.2273 16.0119 38.1411 16.1877 37.9687C16.9085 37.331 17.137 37.2104 17.6468 37.2104C17.682 37.2104 17.7347 37.2104 17.7699 37.2104C17.9808 37.2104 18.2445 37.2448 18.5434 37.2448C19.229 37.2448 20.1256 37.1242 20.7761 36.5382C21.7254 35.6074 23.3427 34.3492 23.8701 33.7632C24.5206 32.9703 24.8546 31.8672 24.6788 30.7814C24.5558 29.7645 25.1007 28.8854 25.7512 28.0064C26.5599 26.955 28.0718 25.0591 28.0718 25.0591C31.0252 27.248 32.8711 30.5745 32.8711 34.2803C32.8711 40.8471 27.0345 46.1385 19.8267 46.1385C18.7192 46.1385 17.6468 46.0179 16.5744 45.7593C19.8795 46.8969 22.6747 47.2761 24.9425 47.2761C29.7946 47.2761 32.3613 45.5525 32.3613 45.5525C32.3613 45.5525 31.4647 46.6901 30.0056 48C30.0407 48 30.0407 48 30.0407 48C38.0572 46.9141 41.9775 40.4335 41.9775 40.4335C41.9775 40.4335 41.6787 42.5362 41.2919 43.9668C51.9806 36.1073 50.1698 26.2483 50.1347 25.9209C50.2226 26.0415 51.2949 27.317 51.8575 27.9892C53.5803 10.5982 39.112 4.99652 39.112 4.99652ZM22.6747 32.6773C22.4989 32.8841 21.7781 33.5219 21.2507 33.9872C20.7409 34.4526 20.1783 34.918 19.7564 35.3316C19.5806 35.504 19.2466 35.5902 18.7192 35.5902C18.5434 35.5902 18.3676 35.5902 18.2445 35.5902C18.1566 35.5902 18.0687 35.5902 17.9808 35.5902C17.8929 35.5902 17.8578 35.5902 17.805 35.5902C17.682 35.5902 17.5413 35.5902 17.4183 35.5902C18.0687 34.7456 19.9498 32.8152 20.6003 32.4015C21.3738 31.9017 21.7605 31.3846 21.2859 30.5056C20.8112 29.6266 19.563 29.8334 19.563 29.8334C19.563 29.8334 20.2838 29.5404 20.9343 29.5404C20.1256 29.3336 19.0884 29.5404 18.6137 30.0058C18.1039 30.4711 18.1918 32.1085 17.9633 33.1599C17.7523 34.2458 17.0139 34.7973 15.9064 35.8142C15.3087 36.3658 14.8692 36.5209 14.5352 36.5209C13.8144 36.4003 12.9529 36.1762 12.3552 35.9694C11.9333 35.4178 11.2829 33.608 11.107 32.8497C11.2301 32.436 11.7575 31.5397 12.0036 31.0399C12.5134 30.0747 12.8123 29.5232 12.9002 29.0233C13.076 28.3166 13.621 23.887 13.8495 22.0428C14.4121 22.7495 15.1856 23.9387 15.0098 24.6971C16.258 22.9735 15.3614 21.2844 14.9219 20.6122C14.5352 19.94 14.0253 18.5956 14.4473 17.165C14.8692 15.7345 16.4162 11.7874 16.4162 11.7874C16.4162 11.7874 16.926 12.6665 17.6644 12.4941C18.3852 12.3218 24.2745 3.65211 24.2745 3.65211C24.2745 3.65211 25.8567 7.06482 24.1866 9.54678C22.4637 12.0287 20.7936 12.4941 20.7936 12.4941C20.7936 12.4941 23.1494 12.9078 25.3469 11.3565C26.2434 13.4249 27.1049 15.5621 27.1576 15.8551C27.0345 16.1481 25.3117 20.1813 25.1359 20.4398C25.048 20.526 24.4503 20.6984 24.0284 20.7846C23.3076 20.9914 22.8681 21.1293 22.6923 21.2499C22.3934 21.5085 21.0222 25.1969 20.3717 27.0067C19.5982 27.2135 18.8247 27.6444 18.2621 28.4718C18.561 28.2649 19.5103 28.127 20.1959 28.0581C20.7936 28.0236 22.6395 28.9888 23.1142 30.7986C23.1142 30.8331 23.1142 30.8331 23.1142 30.8848C23.2373 31.557 23.0263 32.1775 22.6747 32.6773ZM18.6489 33.1944C19.0356 32.6428 19.0005 31.7293 19.0356 31.4191C19.0708 31.1261 19.1587 30.5745 19.5103 30.4884C19.8619 30.4022 20.6706 30.5228 20.6706 31.1261C20.6706 31.6776 20.0729 31.7983 19.6334 32.1775C19.3345 32.4705 18.7368 33.1082 18.6489 33.1944ZM35.7718 25.1625C36.1937 23.0252 36.2465 21.1638 36.1234 19.647C37.7935 21.836 38.8307 24.4903 39.1296 27.2135C39.1647 27.5583 39.5163 27.8857 39.8504 28.2305C40.1492 28.489 40.5008 28.8165 40.5008 29.0233C40.5008 29.9885 40.4129 30.9537 40.2371 31.9189C40.202 32.0396 39.8152 32.2637 39.5163 32.4188C39.0944 32.6256 38.7077 32.8324 38.6198 33.1772C37.6704 36.4175 35.6663 39.2786 32.959 41.2952C36.9321 37.2276 38.8659 30.5056 35.7718 25.1625ZM33.0645 41.6917C35.8597 39.5889 38.0045 36.6416 38.9362 33.315C38.9714 33.1944 39.3581 32.9703 39.6218 32.8152C40.0437 32.6084 40.4832 32.3498 40.5711 32.0224C40.7469 31.0571 40.8348 30.0402 40.8348 29.0405C40.8348 28.6614 40.4481 28.2822 40.0613 27.903C39.8504 27.6444 39.4988 27.3514 39.4988 27.1446C39.1472 24.0766 37.9166 21.1638 35.9828 18.768C35.1213 13.7179 31.6932 12.1666 31.6053 12.1149C31.6932 12.2356 33.9259 15.3897 32.3789 19.0955C30.7967 22.8356 26.7181 22.2496 26.3665 22.2841C26.0149 22.2841 24.6964 23.9732 23.0263 27.0757C22.8153 26.9895 21.9188 26.7826 20.8815 26.955C21.6551 24.8522 22.8153 21.8704 23.0263 21.6119C23.1142 21.5257 23.7471 21.3533 24.1866 21.2327C24.9953 21.0259 25.382 20.888 25.5227 20.7329C25.6106 20.6122 26.0325 19.647 26.472 18.6301C26.8587 18.6301 27.8432 18.5439 27.9311 18.5094C28.019 18.4233 28.8277 16.3722 28.8277 16.1136C28.8277 15.9068 27.1576 11.8219 26.5071 10.2707C26.806 9.92597 27.1049 9.51231 27.4037 9.04694C36.1937 9.97768 43.0675 17.2857 43.0675 26.1622C43.0675 32.9876 38.9889 38.9167 33.0645 41.6917Z" fill="#1B314F"/>
<path d="M21.6136 18.93C22.3863 17.9447 21.9832 16.1201 20.5553 15.8099C20.9249 14.8793 21.4624 13 21.4624 13C21.4624 13 17.2796 20.1342 16.9101 20.2619C16.5405 20.3897 16.1709 18.8387 16.1709 18.8387C15.3982 22.0865 17.4812 22.5427 17.7332 21.5027C18.8587 21.1925 20.8241 19.8605 21.6136 18.93Z" fill="#1B314F"/>
<path d="M18 20L20.1899 17C20.1899 17 21.4487 17.5115 20.828 18.3134C20.0175 19.2535 18 20 18 20Z" fill="white"/>
<path d="M45.3731 37.4767C44.6817 38.3065 43.9156 39.1702 43 40C48.886 29.7544 43.2803 20.3726 43.0374 20C43.4485 20.3726 43.8595 20.779 44.2146 21.1516C48.7552 25.6901 49.297 32.5148 45.3731 37.4767Z" fill="white"/>
<path d="M50 24C48.0877 18.9346 45.3757 14.6076 39.3953 10.7099C33.6236 6.93232 27.4346 7.22422 27.0869 7.27573C27.0522 7.27573 27 7.27573 27 7.27573C27.2086 7.18988 27.4172 7.15554 27.6432 7.10402C28.9645 6.69193 30.6508 6.34851 32.3545 6.14246C36.8571 5.50715 41.3946 7.01817 44.489 10.2463C44.5238 10.2806 44.5238 10.2806 44.576 10.3321C48.0877 14.0238 49.9131 18.6427 50 24Z" fill="white"/>
<path d="M38 3.37127C31.8994 2.0813 27.9777 2.72629 25.162 3.92141C25.0782 3.542 24.7933 2.80217 24.5419 2.21409C23.6871 3.37127 22.7821 4.7561 22.2123 5.6477C20.6536 6.84282 20 8 20 8C20.905 4.52845 23.5196 1.92954 26.7039 1.28455C27.6089 1.09485 28.581 1 29.6536 1C32.486 1.05691 35.3017 1.83469 38 3.37127Z" fill="white"/>
<path d="M15 12C10.8032 11.8061 12.2119 5.36842 12.2853 5C12.2706 5.05817 12.5641 10.0609 15 12Z" fill="white"/>
<path d="M20 1C16.334 3.36242 17.0672 9 17.0672 9C13.5844 3.27293 19.7167 1.14318 20 1Z" fill="white"/>
<path d="M13.6686 12.63C13.9199 12.839 14.1545 13.2222 13.8696 13.7796C13.7021 14.0757 13.4675 14.0408 13.0989 13.8666C12.613 13.6054 9.66407 11.8288 7 10C10.0327 11.0973 13.0989 12.2991 13.5848 12.5429C13.5848 12.5429 13.635 12.5952 13.6686 12.63Z" fill="white"/>
</svg>
