<svg width="90" height="26" viewBox="0 0 90 26" fill="none" xmlns="http://www.w3.org/2000/svg">
<g clip-path="url(#clip0_4486_25190)">
<path d="M55.0362 23.591L46.7092 2.99211C46.6435 2.80418 46.6088 2.6064 46.6067 2.40688C46.5903 1.98444 46.7371 1.57233 47.0156 1.25915C47.1584 1.11016 47.3308 0.994039 47.5212 0.918582C47.7117 0.843125 47.9157 0.810077 48.1197 0.821654C48.4289 0.82528 48.7292 0.92739 48.9787 1.1137C49.2407 1.31207 49.4458 1.57854 49.5725 1.88529L57.4906 22.0467L65.4099 1.88529C65.5358 1.57839 65.7406 1.31182 66.0026 1.1137C66.2521 0.92739 66.5524 0.82528 66.8616 0.821654C67.0658 0.809912 67.27 0.84288 67.4606 0.918341C67.6513 0.993803 67.8239 1.11001 67.9668 1.25915C68.2453 1.57233 68.3921 1.98444 68.3757 2.40688C68.3736 2.60603 68.339 2.80344 68.2732 2.99097L59.9462 23.591C59.4771 24.6557 58.7797 25.1819 57.8594 25.1819H57.123C56.2027 25.1773 55.5064 24.6557 55.0362 23.591Z" fill="white"/>
<path d="M71.915 24.5511C71.7736 24.4058 71.6626 24.2329 71.5887 24.0426C71.5148 23.8524 71.4795 23.6488 71.4849 23.4442V2.57379C71.4775 2.15532 71.632 1.75072 71.915 1.44765C72.0535 1.29752 72.2219 1.17931 72.4089 1.10092C72.5958 1.02253 72.797 0.985771 72.999 0.993103H86.5235C86.7146 0.987653 86.9048 1.02386 87.0811 1.0993C87.2575 1.17474 87.4161 1.28769 87.5462 1.4306C87.685 1.56473 87.7949 1.72684 87.8689 1.90663C87.943 2.08641 87.9795 2.27995 87.9763 2.47492C87.9813 2.66696 87.9455 2.85783 87.8712 3.03438C87.797 3.21094 87.6861 3.36899 87.5462 3.49765C87.272 3.76729 86.9043 3.91519 86.5235 3.90901H74.5544V11.5079H85.3157C85.507 11.5026 85.6971 11.5391 85.8735 11.6147C86.0499 11.6903 86.2084 11.8035 86.3385 11.9465C86.4759 12.0815 86.5849 12.2436 86.6589 12.4229C86.7328 12.6023 86.7701 12.7951 86.7686 12.9897C86.7736 13.1817 86.7377 13.3726 86.6635 13.5492C86.5893 13.7257 86.4784 13.8838 86.3385 14.0124C86.2035 14.1474 86.0436 14.2538 85.8681 14.3254C85.6925 14.397 85.5048 14.4323 85.3157 14.4295H74.5544V22.0681H86.5235C86.7148 22.0623 86.9051 22.0984 87.0816 22.1741C87.258 22.2498 87.4165 22.3632 87.5462 22.5067C87.6851 22.6406 87.7951 22.8025 87.8691 22.9821C87.9432 23.1617 87.9797 23.3551 87.9763 23.5499C87.9813 23.742 87.9455 23.9328 87.8712 24.1094C87.797 24.2859 87.6861 24.444 87.5462 24.5726C87.2729 24.8444 86.9051 24.9944 86.5235 24.9897H72.999C72.7976 25.0049 72.5954 24.9733 72.4076 24.8973C72.2199 24.8213 72.0515 24.7029 71.915 24.5511Z" fill="white"/>
<path d="M48.5907 23.0065L40.2648 2.40652C39.7958 1.34288 39.095 0.821289 38.178 0.821289H37.4405C36.5191 0.821289 35.8239 1.34288 35.3537 2.4122L31.7317 11.3895H28.9909C28.5954 11.3919 28.2167 11.5532 27.9371 11.8384C27.6574 12.1237 27.4992 12.5099 27.4969 12.9133V12.9338C27.4989 13.3373 27.657 13.7237 27.9367 14.009C28.2165 14.2943 28.5953 14.4556 28.9909 14.4577H30.4638L27.01 23.0145C26.9443 23.202 26.9097 23.3994 26.9075 23.5986C26.891 24.021 27.0378 24.4332 27.3164 24.7463C27.4593 24.8956 27.6318 25.012 27.8225 25.0876C28.0131 25.1633 28.2174 25.1964 28.4216 25.1849C28.7306 25.1803 29.0306 25.0782 29.2806 24.8929C29.5425 24.6938 29.7475 24.4271 29.8744 24.1202L33.6792 14.4611H36.2963C36.6918 14.4587 37.0705 14.2974 37.3501 14.0121C37.6298 13.7268 37.788 13.3406 37.7903 12.9372V12.8861C37.7883 12.4826 37.6302 12.0962 37.3505 11.8108C37.0707 11.5255 36.6919 11.3643 36.2963 11.3622H34.8813L37.8082 3.95311L45.7263 24.1145C45.8522 24.4214 46.057 24.6879 46.319 24.8861C46.5688 25.0726 46.8695 25.1747 47.1791 25.1781C47.3831 25.1897 47.5871 25.1566 47.7776 25.0812C47.968 25.0057 48.1404 24.8896 48.2832 24.7406C48.5618 24.4271 48.7086 24.0145 48.6921 23.5917C48.7009 23.3914 48.6663 23.1916 48.5907 23.0065Z" fill="white"/>
<path d="M23.713 23.0065L15.3871 2.40652C14.9191 1.34288 14.2194 0.821289 13.2981 0.821289H12.5616C11.6413 0.821289 10.9461 1.34288 10.4749 2.4122L6.85393 11.3895H4.11206C3.71662 11.3922 3.33813 11.5536 3.05851 11.8388C2.77889 12.124 2.62063 12.51 2.61801 12.9133V12.9338C2.62267 13.3357 2.78182 13.7198 3.06122 14.0032C3.34063 14.2867 3.71796 14.447 4.11206 14.4497H5.58494L2.13113 23.0065C2.06546 23.1941 2.03082 23.3915 2.02863 23.5906C2.0119 24.0131 2.15876 24.4254 2.43752 24.7383C2.58041 24.8876 2.75296 25.004 2.94358 25.0797C3.13421 25.1553 3.3385 25.1885 3.54274 25.177C3.85174 25.1723 4.15177 25.0703 4.40173 24.8849C4.6636 24.6859 4.86861 24.4191 4.99556 24.1122L8.80032 14.4531H11.4363C11.8319 14.4507 12.2105 14.2894 12.4902 14.0041C12.7699 13.7189 12.9281 13.3327 12.9304 12.9292V12.8861C12.9283 12.4826 12.7703 12.0962 12.4905 11.8108C12.2108 11.5255 11.832 11.3643 11.4363 11.3622H10.0247L12.9304 3.95197L20.8485 24.1122C20.9747 24.4196 21.1799 24.6865 21.4424 24.8849C21.6923 25.0703 21.9923 25.1723 22.3013 25.177C22.5056 25.1882 22.7098 25.1549 22.9003 25.0792C23.0909 25.0036 23.2635 24.8874 23.4066 24.7383C23.685 24.4252 23.8318 24.013 23.8155 23.5906C23.823 23.3906 23.788 23.1914 23.713 23.0065Z" fill="white"/>
</g>
<defs>
<clipPath id="clip0_4486_25190">
<rect width="89.1304" height="25" fill="white" transform="translate(0.433594 0.5)"/>
</clipPath>
</defs>
</svg>
