<svg width="600" height="114" viewBox="0 0 600 114" fill="none" xmlns="http://www.w3.org/2000/svg">
<path d="M100.6 69.6C122.1 73.6 136.8 81.4 136.8 90.4C136.8 103.4 106.2 114 68.4 114C30.6 114 0 103.5 0 90.4C0 81.4 14.6 73.6 36.2 69.6C45.6 72 56.6 73.4 68.4 73.4C80.2 73.4 91.2 72.1 100.6 69.6ZM92.4 31.5C110.7 34.5 123.3 40.9 123.3 48.4C123.3 58.7 98.7 67.1 68.4 67.1C38.1 67.1 13.5 58.7 13.5 48.3C13.5 40.9 26.1 34.5 44.4 31.4C51.4 33.2 59.6 34.2 68.4 34.2C77.1 34.3 85.3 33.2 92.4 31.5ZM68.6 0C91.3 0 109.7 6.40001 109.7 14.2C109.7 22 91.3 28.4 68.6 28.4C45.9 28.4 27.5 22 27.5 14.2C27.5 6.40001 45.9 0 68.6 0ZM224 94C229.7 94 234.5 93.1 238.2 91.4C242 89.6 244.8 87.2 246.7 84.1C248.6 81 249.6 77.4 249.5 73.7C249.5 69.9 248.7 66.7 247.2 64C245.7 61.4 243.7 59.3 241.2 57.8C238.9 56.4 236.3 55.5 233.6 55.4V54.7C235.9 54.2 238.2 53.2 240.2 51.8C242.2 50.5 243.7 48.7 244.9 46.6C246.1 44.5 246.6 41.9 246.6 38.8C246.6 35.1 245.7 31.8 243.9 28.9C242.1 26 239.4 23.7 235.8 22C232.2 20.3 227.7 19.5 222.3 19.5H193.7V94.1H224V94ZM220.7 51.1H207.3V30.5H221C225 30.5 228 31.5 230 33.3C232 35.2 233.1 37.5 233.1 40.4C233.1 42.6 232.5 44.5 231.5 46.1C230.4 47.7 228.9 48.9 227.1 49.8C225 50.7 222.9 51.1 220.7 51.1ZM221.9 82.7H207.4V60.8H222.3C225.1 60.8 227.5 61.3 229.5 62.4C231.5 63.4 233.1 64.8 234.2 66.6C235.3 68.4 235.9 70.4 235.9 72.6C235.9 75.6 234.8 78 232.6 79.9C230.3 81.8 226.8 82.7 221.9 82.7ZM274 95.1C276.9 95.1 279.4 94.7 281.6 93.9C283.8 93.1 285.6 92 287 90.7C288.5 89.4 289.6 87.9 290.4 86.3H290.8V94H303.5V56.6C303.5 52.9 302.8 49.8 301.5 47.3C300.2 44.9 298.4 42.9 296.2 41.4C293.9 39.9 291.5 38.9 288.9 38.3C286.3 37.6 283.6 37.4 280.9 37.4C277 37.4 273.4 38 270.2 39.1C267.1 40.2 264.3 42 262 44.3C259.7 46.7 258.1 49.7 257.2 52.9L269.5 54.7C270.1 52.8 271.4 51.1 273.3 49.7C275.2 48.3 277.7 47.6 281 47.6C284.1 47.6 286.4 48.3 288 49.9C289.6 51.4 290.5 53.5 290.5 56.3V56.5C290.5 57.7 290 58.7 289.1 59.3C288.2 59.9 286.7 60.3 284.6 60.6C282.5 60.9 279.9 61.2 276.6 61.5C274 61.8 271.3 62.2 268.7 62.9C266.3 63.5 264 64.4 261.8 65.7C259.8 66.9 258.2 68.6 257 70.7C255.8 72.8 255.2 75.4 255.2 78.5C255.2 82.2 256 85.3 257.7 87.8C259.3 90.3 261.6 92.2 264.4 93.5C267.2 94.5 270.4 95.1 274 95.1ZM277.4 85.4C274.6 85.4 272.4 84.8 270.6 83.5C268.8 82.3 267.9 80.4 267.9 78C267.9 76.3 268.3 74.9 269.3 73.8C270.2 72.7 271.4 71.9 272.9 71.3C274.6 70.6 276.4 70.2 278.2 70L281.3 69.6C282.5 69.5 283.7 69.2 284.9 69C286.1 68.8 287.2 68.5 288.2 68.2C289.2 67.9 289.9 67.6 290.3 67.2V73.8C290.3 75.9 289.8 77.8 288.7 79.5C287.6 81.3 286.1 82.7 284.2 83.7C282.3 84.9 280 85.4 277.4 85.4ZM327.1 94V19.4H313.9V94H327.1ZM353.9 95.1C356.8 95.1 359.4 94.7 361.5 93.9C363.7 93.1 365.5 92 366.9 90.7C368.4 89.4 369.5 87.9 370.3 86.3H370.7V94H383.5V56.6C383.5 52.9 382.8 49.8 381.5 47.3C380.2 44.9 378.4 42.9 376.2 41.4C373.9 39.9 371.5 38.9 368.9 38.3C366.3 37.6 363.6 37.4 360.9 37.4C357 37.4 353.4 38 350.2 39.1C347.1 40.2 344.3 42 342 44.3C339.7 46.7 338 49.7 337.2 52.9L349.5 54.7C350.2 52.8 351.4 51.1 353.3 49.7C355.2 48.3 357.7 47.6 361 47.6C364.1 47.6 366.4 48.3 368 49.9C369.6 51.4 370.4 53.5 370.4 56.3V56.5C370.4 57.7 369.9 58.7 369 59.3C368.1 59.9 366.6 60.3 364.5 60.6C362.5 60.9 359.8 61.2 356.5 61.5C353.8 61.8 351.2 62.2 348.6 62.9C346.2 63.5 343.9 64.4 341.8 65.7C339.8 66.9 338.1 68.6 337 70.7C335.8 72.8 335.3 75.4 335.3 78.5C335.3 82.2 336.1 85.3 337.8 87.8C339.4 90.3 341.7 92.2 344.5 93.5C347.2 94.5 350.4 95.1 353.9 95.1ZM357.4 85.4C354.7 85.4 352.4 84.8 350.6 83.5C348.8 82.3 348 80.4 348 78C348 76.3 348.4 74.9 349.3 73.8C350.2 72.7 351.4 71.9 353 71.3C354.7 70.6 356.5 70.2 358.3 70L361.4 69.6C362.6 69.5 363.8 69.2 365 69C366.2 68.8 367.3 68.5 368.3 68.2C369.3 67.9 370 67.6 370.4 67.2V73.8C370.4 75.9 369.9 77.8 368.8 79.5C367.7 81.3 366.2 82.7 364.3 83.7C362.3 84.9 360 85.4 357.4 85.4ZM407.1 94V61.2C407.1 58.5 407.6 56.2 408.7 54.3C409.7 52.4 411.1 50.9 412.9 49.9C414.8 48.9 416.9 48.4 419 48.4C422.4 48.4 425.1 49.5 427 51.6C428.9 53.7 429.9 56.6 429.9 60.4V94H443.1V58.4C443.1 53.9 442.3 50.1 440.8 47C439.2 43.9 437 41.5 434.1 39.8C431.2 38.1 427.8 37.3 424 37.3C419.8 37.3 416.3 38.2 413.5 40.1C410.7 41.9 408.6 44.5 407.3 47.6H406.6V38.1H394V94.1H407.1V94ZM478.1 95.1C482.8 95.1 486.9 94.2 490.3 92.5C493.7 90.9 496.5 88.4 498.6 85.3C500.6 82.2 501.8 78.7 502.1 74.8H489.5C489.2 76.6 488.4 78.4 487.3 79.9C486.3 81.3 485 82.4 483.4 83.1C481.8 83.8 480.1 84.2 478.2 84.2C475.4 84.2 473.1 83.5 471 82C469 80.5 467.4 78.4 466.3 75.7C465.2 73 464.6 69.7 464.6 65.9C464.6 62.1 465.2 58.9 466.3 56.2C467.4 53.5 469 51.4 471.1 50C473.1 48.5 475.5 47.8 478.2 47.8C481.4 47.8 483.9 48.7 485.8 50.5C487.7 52.3 488.9 54.6 489.4 57.3H502C501.7 53.3 500.5 49.7 498.4 46.7C496.3 43.7 493.4 41.2 490 39.7C486.5 38 482.5 37.2 477.9 37.2C472.4 37.2 467.7 38.4 463.7 40.9C459.7 43.3 456.5 46.9 454.4 51.1C452.2 55.4 451.1 60.5 451.1 66.2C451.1 71.9 452.2 76.9 454.3 81.2C456.5 85.5 459.5 88.9 463.5 91.4C467.7 93.9 472.5 95.1 478.1 95.1ZM534.9 95.1C539.2 95.1 543.1 94.4 546.5 93.1C549.9 91.8 552.6 89.9 554.8 87.5C557 85.1 558.5 82.2 559.2 79L546.9 77.6C546.3 79.2 545.4 80.5 544.3 81.6C543.1 82.7 541.8 83.5 540.2 84C538.5 84.6 536.8 84.9 535 84.8C532.1 84.8 529.6 84.2 527.5 83C525.3 81.8 523.6 79.9 522.5 77.7C521.3 75.4 520.7 72.6 520.7 69.3V69.6H559.7V65.6C559.7 60.7 559 56.5 557.6 52.9C556.2 49.3 554.4 46.4 552 44.1C549.7 41.8 546.9 40.1 543.8 39C540.7 37.9 537.4 37.3 534 37.3C528.7 37.3 524 38.5 520.1 41C516.1 43.5 512.9 47 510.9 51.2C508.7 55.5 507.6 60.6 507.6 66.4C507.6 72.3 508.7 77.3 510.9 81.6C513.1 85.9 516.2 89.3 520.3 91.6C524.4 93.9 529.3 95.1 534.9 95.1ZM520.8 60.3C520.9 58.3 521.5 56.4 522.5 54.6C523.6 52.5 525.2 50.8 527.3 49.5C529.4 48.2 531.9 47.5 534.4 47.6C536.9 47.6 539.1 48.2 541 49.3C542.9 50.5 544.4 52 545.5 54C546.6 56 547.1 58.2 547.1 60.8H520.8V60.3ZM581.3 94V61.1C581.3 58.7 581.8 56.6 582.9 54.8C584 53 585.5 51.5 587.4 50.5C589.4 49.4 591.6 48.9 593.8 48.9C594.9 48.9 596.1 49 597.3 49.1C598.5 49.3 599.4 49.4 599.9 49.6V37.5C599.2 37.4 598.4 37.3 597.6 37.2C596.8 37.1 596 37.1 595.1 37.1C591.9 37.1 589 38 586.5 39.7C584 41.5 582.3 43.9 581.2 47.2H580.6V37.9H567.8V93.9H581.3V94Z" fill="white"/>
</svg>
