<svg width="175" height="40" viewBox="0 0 175 40" fill="none" xmlns="http://www.w3.org/2000/svg">
<g clip-path="url(#clip0_4486_25199)">
<path fill-rule="evenodd" clip-rule="evenodd" d="M171.291 22.7349C171.291 20.4202 169.961 18.7367 167.861 18.7367C165.761 18.7367 164.431 20.4202 164.431 22.7349C164.431 25.0496 165.761 26.7331 167.861 26.7331C169.961 26.7331 171.291 25.0496 171.291 22.7349ZM171.221 17.1935V11.2313C171.221 10.8104 171.501 10.4597 171.851 10.3896L175.001 9.54785V29.7423H171.501V27.9887C170.591 29.2513 169.051 30.0229 167.021 30.0229C162.961 30.0229 160.581 26.7261 160.581 22.6577C160.581 18.5894 162.961 15.2926 167.021 15.2926C168.981 15.2926 170.451 16.1344 171.151 17.1164L171.221 17.1935ZM149.598 15.7205V17.4741C150.228 16.2817 151.698 15.4399 153.798 15.4399C157.158 15.4399 158.978 17.6845 158.978 21.0514V29.8194H155.198V21.4723C155.198 19.859 154.498 18.7367 152.818 18.7367C150.998 18.7367 149.948 19.9291 149.948 21.823V29.8896H146.168V15.7907H149.668L149.598 15.7205ZM137.215 30.093C133.085 30.093 130.845 28.3394 130.845 23.78V15.7205H134.625V23.8572C134.625 25.8212 135.535 26.7331 137.215 26.7331C138.895 26.7331 139.805 25.8212 139.805 23.8572V15.7205H143.585V23.7871C143.585 28.3464 141.345 30.093 137.215 30.093ZM118.252 22.7349C118.252 25.2601 119.792 26.7331 121.822 26.7331C123.852 26.7331 125.392 25.2601 125.392 22.7349C125.392 20.2097 123.852 18.7367 121.822 18.7367C119.792 18.7367 118.252 20.2097 118.252 22.7349ZM121.822 30.093C117.342 30.093 114.472 26.7261 114.472 22.7279C114.472 18.7297 117.342 15.3628 121.822 15.3628C126.302 15.3628 129.172 18.7297 129.172 22.7279C129.172 26.7261 126.302 30.093 121.822 30.093ZM102.859 22.7349C102.859 25.0496 104.189 26.7331 106.289 26.7331C108.389 26.7331 109.719 24.9795 109.719 22.7349C109.719 20.4202 108.389 18.7367 106.289 18.7367C104.189 18.7367 102.859 20.4202 102.859 22.7349ZM102.999 28.2763V34.0982C102.999 34.5191 102.719 34.8698 102.369 34.9399L99.2189 35.7817V15.6504H102.719V17.404C103.629 16.1414 105.169 15.3698 107.199 15.3698C111.259 15.3698 113.639 18.6666 113.639 22.7349C113.639 26.8032 111.259 30.1 107.199 30.1C105.239 30.1 103.769 29.2583 103.069 28.2763H102.999ZM87.8859 21.7529V29.7493H84.1059V21.4022C84.1059 19.859 83.5459 18.6666 81.8659 18.6666C80.1159 18.6666 79.1359 19.7889 79.1359 21.6827V29.7493H75.3559V15.6504H78.8559V17.404C79.4859 16.2115 80.8859 15.3698 82.9159 15.3698C84.8059 15.3698 86.2059 16.1414 86.9759 17.3338C88.2359 15.9309 89.6359 15.3698 91.6659 15.3698C95.0259 15.3698 96.7759 17.6845 96.7759 20.9813V29.7493H92.9959V21.4022C92.9959 19.859 92.4359 18.6666 90.7559 18.6666C88.9359 18.6666 88.0259 19.7889 88.0259 21.7529H87.8859ZM62.6229 22.7349C62.6229 25.2601 64.1629 26.7331 66.1929 26.7331C68.2229 26.7331 69.7629 25.2601 69.7629 22.7349C69.7629 20.2097 68.2229 18.7367 66.1929 18.7367C64.1629 18.7367 62.6229 20.2097 62.6229 22.7349ZM66.1929 30.093C61.7129 30.093 58.8429 26.7261 58.8429 22.7279C58.8429 18.7297 61.7129 15.3628 66.1929 15.3628C70.6729 15.3628 73.5429 18.7297 73.5429 22.7279C73.5429 26.7261 70.6729 30.093 66.1929 30.093ZM39.0469 20.2097C39.0469 14.2475 43.1769 10.3264 48.6299 10.3264C53.3899 10.3264 57.0999 13.1322 57.8629 17.7617H53.6629C53.1029 15.3768 51.1429 14.0441 48.6229 14.0441C45.1229 14.0441 43.1629 16.429 43.1629 20.2167C43.1629 24.0045 45.1229 26.3894 48.6229 26.3894C51.1429 26.3894 53.1029 25.0567 53.6629 22.6718H57.8629C57.1629 27.3013 53.3829 30.107 48.6299 30.107C43.1769 30.093 39.0469 26.172 39.0469 20.2097Z" fill="white"/>
<path fill-rule="evenodd" clip-rule="evenodd" d="M1.54 30.935C0.56 30.3738 0 29.2515 0 28.1292V21.7461C0 21.5357 0.07 21.2551 0.21 21.0447C0.56 20.4134 1.4 20.203 2.1 20.5537L16.373 28.9008C17.213 29.3918 17.703 30.3037 17.703 31.2857V37.8792C17.703 38.1598 17.633 38.5105 17.493 38.7209C17.003 39.4925 16.023 39.703 15.253 39.2821L1.61 30.935H1.54ZM22.883 18.8772C23.723 19.3682 24.213 20.2801 24.213 21.2621V34.5825C24.213 35.0033 24.003 35.354 23.653 35.5645L20.503 37.3181C20.433 37.3181 20.433 37.3882 20.363 37.3882V29.953C20.363 28.9709 19.873 28.1292 19.033 27.6382L6.51 20.1398V11.7927C6.51 11.5823 6.58 11.3017 6.72 11.0913C7.07 10.46 7.91 10.2495 8.61 10.6003L22.883 18.9474V18.8772ZM29.106 8.99396C29.946 9.48497 30.436 10.3968 30.436 11.3789V30.8718C30.436 31.2927 30.226 31.6434 29.876 31.8539L26.936 33.4672V19.8593C26.936 18.8772 26.446 18.0355 25.606 17.5445L12.803 9.82868V1.90242C12.803 1.69198 12.873 1.41141 13.013 1.20098C13.363 0.569681 14.203 0.35925 14.903 0.709969L29.176 9.05709L29.106 8.99396Z" fill="white"/>
</g>
<defs>
<clipPath id="clip0_4486_25199">
<rect width="175" height="39" fill="white" transform="translate(0 0.5)"/>
</clipPath>
</defs>
</svg>
