<svg width="2500" height="491" viewBox="0 0 2500 491" fill="none" xmlns="http://www.w3.org/2000/svg">
<g clip-path="url(#clip0_5376_4671)">
<path d="M394 196.6V97.9001H344.6V49.5001H245.9V0.100098H148.1V49.5001H49.4V97.9001H0V393.1H49.4V441.5H148.1V490.9H245.9V441.5H344.6V393.1H394V294.4H295.2V343.7H245.9V393.1H148.1V343.7H98.8V147.3H148.1V97.9001H245.9V147.3H295.2V196.6H394Z" fill="white"/>
<path d="M661 48.5C774.9 48.5 856.5 128.1 856.5 246C856.5 362.9 774.9 442.5 661 442.5C547.1 442.5 466.5 362.9 466.5 246C466.5 130.1 548.2 48.5 661 48.5ZM661 121.1C597.5 121.1 552.2 169.5 552.2 246C552.2 322.5 598.5 369.9 661 369.9C725.5 369.9 770.8 321.5 770.8 246C770.8 170.5 725.5 121.1 661 121.1Z" fill="white"/>
<path d="M926 81.8001C981.4 60.6001 1039.9 50.6001 1099.3 49.6001C1196 49.6001 1257.5 85.9001 1257.5 192.7V434.5H1173.9V199.7C1173.9 145.3 1139.6 126.1 1092.3 126.1C1064.1 126.1 1036.9 129.1 1010.7 137.2V434.5H926V81.8001Z" fill="white"/>
<path d="M1457.1 433.4L1311 57.6001H1400.6L1507.5 351.8L1613.3 57.6001H1700.9L1553.8 433.4H1457.1Z" fill="white"/>
<path d="M1812.8 265.1V267.1C1817.8 334.6 1876.3 370.9 1934.7 370.9C1987.1 370.9 2024.4 358.8 2061.7 334.6V408.2C2027.4 432.4 1977.1 443.5 1928.7 443.5C1810.8 443.5 1730.2 368.9 1730.2 250C1730.2 131.1 1808.8 50.5 1912.6 50.5C2022.4 50.5 2074.8 121 2074.8 223.8V266.1H1811.8L1812.8 265.1ZM1815.8 210.7H1997.2C1995.2 152.3 1966 120 1911.5 120C1863.2 120 1826.9 154.3 1815.8 210.7Z" fill="white"/>
<path d="M2359.9 240L2500 433.4H2403.3L2310.6 302.4L2217.9 433.4H2125.2L2265.2 241L2133.2 57.6001H2231L2314.6 178.5L2396.2 57.6001H2492.9L2359.9 240Z" fill="white"/>
</g>
<defs>
<clipPath id="clip0_5376_4671">
<rect width="2500" height="491" fill="white"/>
</clipPath>
</defs>
</svg>
