<svg width="602" height="193" viewBox="0 0 602 193" fill="none" xmlns="http://www.w3.org/2000/svg">
<path d="M338.599 109.4H349.799C347.999 117.2 344.199 123.4 338.499 128C332.799 132.6 325.399 134.8 316.499 134.8C304.299 134.8 294.699 130.8 287.899 122.7C281.099 114.6 277.699 104.1 277.699 91.2998C277.699 78.4998 281.199 67.8998 288.099 59.8998C294.999 51.7998 304.599 47.7998 316.699 47.7998C325.199 47.7998 332.199 49.8998 337.899 54.1998C343.599 58.3998 347.199 64.0998 348.999 71.3998H337.799C334.499 62.0998 327.499 57.4998 316.699 57.4998C307.399 57.4998 300.399 60.7998 295.599 67.2998C290.799 73.7998 288.399 81.8998 288.399 91.3998C288.399 101.1 290.799 109.1 295.499 115.7C300.299 122.1 307.299 125.4 316.599 125.4C322.399 125.4 327.199 124 330.999 121.3C334.599 118.2 337.199 114.3 338.599 109.4ZM364.399 73.8998H374.399V109.5C374.399 120.4 379.399 125.9 389.499 125.9C394.599 125.9 398.799 124 402.099 120.1C405.499 116.3 407.199 111.6 407.199 106.1V73.8998H417.199V133.3H407.499V126.9H404.899C403.199 129.3 400.699 131.2 397.599 132.7C394.499 134.1 390.899 134.8 386.999 134.8C379.799 134.8 374.199 132.8 370.299 128.7C366.399 124.5 364.399 118.8 364.399 111.6V73.8998ZM470.299 73.8998V83.2998H465.399C459.399 83.2998 454.799 85.0998 451.399 88.5998C448.099 92.0998 446.499 97.0998 446.499 103.6V133.3H436.499V73.8998H446.199V80.9998H448.799C452.599 76.2998 458.299 73.8998 465.999 73.8998H470.299ZM500.599 133.3L480.899 73.8998H491.299L507.899 123.8H512.699L528.699 73.8998H539.199L519.299 133.3H500.599ZM601.999 100.1V103.5H556.799C556.999 110.6 558.599 116.2 561.899 120.2C565.099 124.1 569.799 126.1 575.799 126.1C583.999 126.1 588.999 123 590.899 116.9H600.999C599.999 122.2 597.299 126.6 592.899 129.9C588.599 133.2 582.899 134.8 575.799 134.8C566.799 134.8 559.699 131.9 554.599 126C549.499 120.1 546.899 112.5 546.899 103C546.899 93.6998 549.499 86.2998 554.599 80.6998C559.699 75.0998 566.699 72.2998 575.599 72.2998C583.999 72.2998 590.499 74.9998 594.999 80.2998C599.499 85.6998 601.799 92.1998 601.999 100.1ZM575.299 81.0998C570.199 81.0998 566.099 82.3998 563.099 85.0998C559.999 87.6998 558.199 90.9998 557.399 95.0998H591.699C591.399 91.0998 589.799 87.7998 586.899 85.0998C583.899 82.4998 580.099 81.0998 575.299 81.0998Z" fill="white"/>
<path d="M91.6991 97.2002C90.7991 79.9002 84.1991 62.3002 77.7991 47.9002C76.2991 44.5002 75.7991 33.8002 88.8991 36.1002C105.099 41.8002 147.199 58.1002 149.499 78.5002C150.399 86.7002 144.599 92.5002 129.699 94.5002C114.799 96.4002 98.5991 96.9002 91.6991 97.2002ZM91.6991 97.2002C92.5991 114.5 91.6991 129.2 87.1991 146M87.1991 145.9C82.8991 168.5 69.4991 180.6 58.9991 183.6C5.19907 198.9 2.99907 117.8 8.79907 74.6002C12.2991 48.3002 24.8991 22.6002 40.2991 13.0002C46.6991 9.00017 60.5991 3.80018 82.4991 10.6002C109.199 19.0002 136.299 33.3002 143.399 37.5002C150.499 41.7002 167.299 54.6002 172.699 62.3002C183.099 77.2002 187.299 84.7002 182.299 103.5C177.399 122.4 158.599 125.2 152.599 126.2C126.499 131 112.399 137.3 87.1991 145.9Z" stroke="white" stroke-width="13.1109"/>
<path d="M59.4995 121.8C59.6995 129.5 58.1995 136.2 55.8995 140.8C53.4995 145.6 50.9995 146.6 49.7995 146.7C48.5995 146.7 46.0995 145.9 43.3995 141.2C40.7995 136.8 38.8995 130.2 38.6995 122.5C38.4995 114.8 39.9995 108.1 42.2995 103.5C44.6995 98.7001 47.1995 97.7001 48.3995 97.6001C49.5995 97.6001 52.0995 98.4001 54.7995 103.1C57.2995 107.5 59.1995 114.1 59.4995 121.8Z" stroke="white" stroke-width="13.1109"/>
</svg>
