<svg width="707" height="157" viewBox="0 0 707 157" fill="none" xmlns="http://www.w3.org/2000/svg">
<path d="M225.617 30.6064H241.802L272.344 97.6007L302.887 30.6064H319.072V124.36H303.409V62.6642L276.26 124.36H268.429L241.28 62.6642V124.36H225.617V30.6064Z" fill="white"/>
<path d="M368.794 124.032C361.485 124.032 355.046 122.724 349.477 120.107C343.995 117.403 339.731 113.565 336.686 108.592C333.64 103.533 332.117 97.5577 332.117 90.6662C332.117 83.9493 333.597 78.1049 336.555 73.1324C339.6 68.0731 343.908 64.1912 349.477 61.4869C355.046 58.6958 361.485 57.2998 368.794 57.2998C376.104 57.2998 382.499 58.6958 387.981 61.4869C393.55 64.1912 397.858 68.0731 400.903 73.1324C403.948 78.1049 405.472 83.9493 405.472 90.6662C405.472 97.5577 403.948 103.533 400.903 108.592C397.858 113.565 393.55 117.403 387.981 120.107C382.499 122.724 376.104 124.032 368.794 124.032ZM368.794 111.078C374.799 111.078 379.584 109.203 383.152 105.452C386.719 101.614 388.504 96.685 388.504 90.6662C388.504 84.2981 386.719 79.326 383.152 75.7495C379.671 72.0857 374.885 70.2541 368.794 70.2541C362.703 70.2541 357.874 72.0857 354.306 75.7495C350.826 79.326 349.085 84.2981 349.085 90.6662C349.085 96.685 350.869 101.614 354.437 105.452C358.004 109.203 362.79 111.078 368.794 111.078Z" fill="white"/>
<path d="M418.469 61.5527H434.393V71.6282C436.916 68.2261 440.486 65.6962 445.094 64.039C449.795 62.3813 455.145 61.5527 461.15 61.5527V74.114C454.796 74.114 449.271 75.1175 444.575 77.1236C439.962 79.043 436.741 82.0957 434.915 86.2829V124.36H418.469V61.5527Z" fill="white"/>
<path d="M471.621 59.2627H487.546V66.852C490.941 63.6243 494.638 61.2252 498.64 59.6552C502.642 58.0852 507.211 57.2998 512.348 57.2998C518.698 57.2998 524.354 58.6958 529.316 61.4869C534.361 64.1912 538.275 68.0731 541.06 73.1324C543.931 78.1049 545.367 85.0513 545.367 91.6806C545.367 98.2232 543.931 102.879 541.06 107.938C538.275 112.998 534.361 116.967 529.316 119.845C524.354 122.637 518.698 124.032 512.348 124.032C507.56 124.032 503.035 123.378 498.771 122.07C494.594 120.674 491.029 118.624 488.07 115.92V153.27H471.621V59.2627ZM508.298 111.078C514.216 111.078 519.09 109.16 522.918 105.321C526.745 101.483 528.661 96.5542 528.661 90.5354C528.661 84.5162 526.745 79.6313 522.918 75.8803C519.09 72.1293 514.216 70.2541 508.298 70.2541C503.602 70.2541 499.425 71.5188 495.768 74.0487C492.115 76.5781 489.549 79.9802 488.07 84.2545V96.9467C489.462 101.221 491.984 104.667 495.637 107.284C499.382 109.814 503.602 111.078 508.298 111.078Z" fill="white"/>
<path d="M558.426 30.6064H574.874V69.5347C580.788 62.905 588.447 59.5905 597.843 59.5905C606.284 59.5905 612.594 61.9019 616.771 66.5251C620.947 71.0616 623.038 77.1239 623.038 84.7131V124.36H606.589V86.2831C606.589 77.1239 602.325 72.5443 593.798 72.5443C590.058 72.5443 586.531 73.4602 583.228 75.2923C579.919 77.0367 577.135 79.6974 574.874 83.274V124.36H558.426V30.6064Z" fill="white"/>
<path d="M670.243 124.032C662.933 124.032 656.496 122.724 650.927 120.107C645.446 117.403 641.182 113.565 638.136 108.592C635.089 103.533 633.566 97.5577 633.566 90.6662C633.566 83.9493 635.046 78.1049 638.005 73.1324C641.051 68.0731 645.358 64.1912 650.927 61.4869C656.496 58.6958 662.933 57.2998 670.243 57.2998C677.553 57.2998 683.951 58.6958 689.433 61.4869C695.001 64.1912 699.309 68.0731 702.355 73.1324C705.397 78.1049 706.92 83.9493 706.92 90.6662C706.92 97.5577 705.397 103.533 702.355 108.592C699.309 113.565 695.001 117.403 689.433 120.107C683.951 122.724 677.553 124.032 670.243 124.032ZM670.243 111.078C676.248 111.078 681.036 109.203 684.601 105.452C688.171 101.614 689.952 96.685 689.952 90.6662C689.952 84.2981 688.171 79.326 684.601 75.7495C681.123 72.0857 676.336 70.2541 670.243 70.2541C664.155 70.2541 659.324 72.0857 655.754 75.7495C652.276 79.326 650.534 84.2981 650.534 90.6662C650.534 96.685 652.319 101.614 655.885 105.452C659.455 109.203 664.238 111.078 670.243 111.078Z" fill="white"/>
<path opacity="0.9" d="M19.6211 106.25V151.242C19.6211 154.012 21.9668 155.162 22.6965 155.423C23.4263 155.736 25.8762 156.416 28.0655 154.378L60.0467 123.666C64.331 119.551 71.3299 110.013 71.3299 110.013C73.4151 105.78 73.4151 101.704 71.3823 97.6286C68.3588 91.5666 60.6442 85.4005 49.0201 79.5479L29.1602 90.6264C23.27 93.9705 19.6211 99.8754 19.6211 106.25Z" fill="white"/>
<path d="M0 6.18404V53.3708C0 59.2758 3.96171 64.5013 9.59128 66.1733C28.7736 71.7124 62.1863 83.6265 70.2658 101.132C71.3084 103.432 71.9338 105.678 72.1424 108.03C77.5112 98.2584 79.9613 87.0233 78.8143 75.6317C77.2507 59.4847 68.7021 44.8008 55.3577 35.4471L7.76687 2.16033C6.93283 1.53326 5.94242 1.21973 4.95201 1.21973C4.11801 1.21973 3.38818 1.3765 2.60629 1.79454C1.04252 2.68288 0 4.30283 0 6.18404Z" fill="white"/>
<path opacity="0.9" d="M146.205 106.25V151.242C146.205 154.012 143.86 155.162 143.13 155.423C142.4 155.736 139.95 156.416 137.761 154.378L105.779 123.666C101.495 119.551 94.4962 110.013 94.4962 110.013C92.411 105.78 92.411 101.704 94.4443 97.6286C97.4674 91.5666 105.182 85.4005 116.806 79.5479L136.666 90.6264C142.608 93.9705 146.205 99.8754 146.205 106.25Z" fill="white"/>
<path d="M165.908 6.17816V53.3648C165.908 59.2698 161.946 64.4952 156.317 66.1673C137.134 71.7063 103.722 83.6209 95.6421 101.126C94.5995 103.426 93.9741 105.672 93.7655 108.024C88.3966 98.2524 85.9466 87.0173 87.0935 75.6257C88.6572 59.4787 97.2058 44.7948 110.55 35.4412L158.141 2.15447C158.975 1.5274 159.966 1.21387 160.956 1.21387C161.79 1.21387 162.519 1.37064 163.302 1.78868C164.865 2.67702 165.908 4.29697 165.908 6.17816Z" fill="white"/>
</svg>
