<svg width="335" height="74" viewBox="0 0 335 74" fill="none" xmlns="http://www.w3.org/2000/svg">
<path fill-rule="evenodd" clip-rule="evenodd" d="M1.29808 1.64052C9.66602 11.8861 18.8538 24.7577 20.3399 26.8395C20.4191 26.9505 20.4765 27.0309 20.5106 27.0785C21.3028 28.1831 21.9568 29.0042 22.4534 29.6277C23.556 31.012 23.8832 31.4228 23.2253 31.8001C22.6946 32.1044 22.1472 32.2047 21.601 32.2047C20.9832 32.2047 20.2871 31.9046 19.7803 31.4196C19.422 31.0768 16.9707 27.4853 13.6328 22.2606C11.0789 18.2628 8.94148 14.9464 8.88317 14.8909C8.74837 14.7625 8.75067 14.7668 13.3724 23.109C16.2745 28.3474 18.2596 32.2184 18.2596 32.4661C18.2596 32.9698 18.1233 33.2346 17.5073 33.9278C16.4804 35.0837 16.0213 36.3823 15.6899 39.0697C15.3184 42.0822 14.2738 44.2106 11.3787 47.8526C9.6841 49.9848 9.40682 50.3755 8.9792 51.235C8.44062 52.3171 8.29249 52.9232 8.23247 54.2897C8.16903 55.7346 8.29259 56.668 8.73015 58.0491C9.11324 59.2585 9.51308 60.0573 10.5353 61.6545C11.4174 63.0326 11.9254 64.0568 11.9254 64.4576C11.9254 64.7765 11.9857 64.7769 13.3527 64.4657C16.624 63.7202 19.2804 62.4098 20.7743 60.8035C21.6989 59.8091 21.916 59.2602 21.923 57.8979C21.9277 57.0067 21.8966 56.8203 21.6578 56.3076C21.2691 55.4729 20.5615 54.7794 19.0019 53.7038C16.9583 52.2944 16.0855 51.16 15.8444 49.5997C15.6467 48.3196 15.8761 47.4163 17.0066 45.0261C18.1767 42.552 18.4667 41.4978 18.6628 39.0038C18.7895 37.3926 18.965 36.7573 19.4238 36.2474C19.9024 35.7155 20.3333 35.5354 21.5176 35.3719C23.4486 35.106 24.6781 34.602 25.6887 33.6625C26.5655 32.8475 26.9324 32.0622 26.9886 30.88L27.0314 29.9839L26.5414 29.4077C24.7672 27.3207 0.109864 0 0.00067533 0C-0.0226505 0 0.561205 0.738285 1.29808 1.64052ZM12.9214 55.9246C13.3226 55.2077 13.1094 54.2866 12.4384 53.8363C11.8043 53.4111 10.8194 53.6115 10.8194 54.1656C10.8194 54.3347 10.9121 54.4577 11.1211 54.5664C11.4729 54.749 11.4984 54.9543 11.2216 55.3739C10.9413 55.7991 10.9639 56.1727 11.2854 56.4264C11.8036 56.8359 12.5372 56.6108 12.9214 55.9246ZM24.9959 16.8418C24.2043 16.718 24.171 16.7035 24.5435 16.6457C25.2573 16.5349 26.9429 16.6859 28.1045 16.9645C30.8162 17.6148 33.2837 19.2805 35.9176 22.2389L36.6172 23.0249L37.6184 22.8625C41.8356 22.1788 46.1257 22.7222 49.714 24.3944C50.7012 24.8545 52.2576 25.7702 52.4519 26.0055C52.5137 26.0805 52.6278 26.5633 52.7046 27.0785C52.9712 28.8608 52.8379 30.2269 52.2973 31.2473C52.0035 31.8025 51.9871 31.9785 52.1846 32.4537C52.3424 32.8329 52.7824 33.1135 53.2182 33.1129C54.1098 33.1117 55.0695 31.6575 55.5144 29.6342L55.691 28.8305L56.041 29.2304C57.9602 31.4242 59.4681 34.4161 59.727 36.5457L59.7944 37.1009L59.4719 36.5962C58.9164 35.7277 58.3588 35.1363 57.6441 34.6594C56.3564 33.7998 54.9944 33.5072 51.3883 33.3155C48.1311 33.1424 46.2879 32.8617 44.4601 32.2604C41.3498 31.2376 39.7823 29.8753 36.0879 24.9858C34.4471 22.8141 33.4329 21.6125 32.4241 20.6448C30.1317 18.4461 27.8793 17.293 24.9959 16.8418ZM53.1865 21.6908C53.2685 20.2356 53.4643 19.2757 53.8575 18.3991C54.0132 18.0521 54.159 17.7681 54.1814 17.7681C54.2041 17.7681 54.1364 18.0242 54.031 18.3372C53.7452 19.188 53.6981 20.3515 53.8952 21.7054C54.1451 23.4231 54.2875 23.671 56.087 25.5265C56.9312 26.3969 57.9131 27.4945 58.2691 27.9658L58.9164 28.8227L58.2691 28.2103C57.4776 27.4614 55.6575 26.0009 55.2555 25.7921C54.9857 25.6521 54.9456 25.6545 54.7795 25.8215C54.6263 25.9754 54.5938 26.2065 54.5726 27.2995C54.5394 29.0029 54.3094 30.0963 53.7539 31.1895C53.4534 31.7808 53.406 31.6546 53.6778 30.9872C53.8809 30.4889 53.9015 30.2698 53.9001 28.6208C53.897 25.3075 53.5068 24.511 51.2201 23.1465C50.6412 22.8008 49.6864 22.3023 49.0991 22.0386C48.5122 21.7749 48.0456 21.5452 48.0624 21.5281C48.1273 21.4631 50.3575 22.1197 51.255 22.468C52.5901 22.9861 52.8103 23.0532 52.9726 22.9907C53.0811 22.9488 53.1338 22.6295 53.1865 21.6908ZM24.1475 19.1472C23.9323 21.7052 24.9265 25.127 26.5335 27.3589C27.7792 29.0889 29.7102 30.4333 31.1358 30.5632C32.0693 30.6482 32.3498 30.3534 31.9275 29.7313C31.3412 28.8675 30.6201 27.5376 30.4293 26.9681C30.3108 26.6144 30.0532 25.5695 29.8568 24.6462C29.1865 21.4939 28.5277 20.2663 27.0057 19.3338C26.4511 18.994 25.2668 18.5493 24.5799 18.4229L24.2141 18.3556L24.1475 19.1472ZM51.2376 43.9691C43.7276 40.9189 41.0825 38.2712 41.0825 33.8038C41.0825 33.1464 41.1052 32.6085 41.1324 32.6085C41.16 32.6085 41.4503 32.8255 41.778 33.0907C43.3008 34.3228 45.0062 34.8491 49.7273 35.5437C52.505 35.9529 54.0683 36.2829 55.5106 36.7656C60.0941 38.2991 62.9301 41.411 63.6064 45.65C63.8029 46.8816 63.6877 49.1913 63.3691 50.4086C63.1175 51.3702 62.3498 53.103 62.1464 53.1696C62.0898 53.188 62.0343 52.9699 62.02 52.6729C61.9429 51.0813 61.1455 49.5318 59.8066 48.3708C58.2841 47.051 56.2385 46.0006 51.2376 43.9691ZM45.6026 43.6335C45.708 43.9503 45.8713 44.6714 45.9651 45.2363C46.5667 48.8476 44.6876 51.7654 41.0323 52.896C40.6453 53.0155 39.121 53.3166 37.6449 53.5644C34.6569 54.0663 33.3233 54.4218 31.9836 55.0728C31.0335 55.5346 29.8832 56.226 29.9515 56.2947C29.9736 56.317 30.1904 56.2647 30.4333 56.1786C32.1229 55.5802 34.0031 55.2704 36.8598 55.1206C37.9935 55.0613 39.2829 54.9665 39.7254 54.9104C42.2704 54.587 44.0344 53.807 45.4061 52.3986C46.1693 51.6148 46.6243 50.8847 46.9911 49.8552C47.2235 49.2021 47.2549 48.9595 47.2566 47.8024C47.2587 46.6234 47.2305 46.4077 46.9785 45.6824C46.6488 44.7316 46.2597 44.0182 45.7669 43.4603L45.411 43.0574L45.6026 43.6335ZM49.408 51.404C48.4099 49.24 48.181 47.151 48.7275 45.2028C48.7861 44.9944 48.88 44.824 48.9369 44.824C48.9934 44.824 49.2286 44.9526 49.46 45.1094C49.9195 45.4217 50.8418 45.9476 53.2985 47.2988C56.3645 48.9849 58.1124 50.2905 59.3009 51.7825C60.3419 53.0887 60.9861 54.5765 61.2959 56.3909C61.4718 57.4187 61.3689 59.8917 61.1075 60.9265C60.2833 64.1896 58.3675 66.7526 55.6351 68.2484C55.2349 68.4673 54.8755 68.6471 54.8364 68.6482C54.7976 68.6489 54.9435 68.2749 55.1605 67.8166C56.0797 65.8782 56.1844 63.9927 55.4896 61.8943C55.0639 60.6093 54.1964 59.0414 52.4446 56.3912C50.4081 53.3104 49.9087 52.4903 49.408 51.404ZM30.6132 58.5012C27.4547 59.0187 23.9872 60.7048 21.2003 63.0786L20.3706 63.7854L21.0998 63.9004C24.9048 64.4995 25.9294 65.0309 28.5688 67.7738C30.0877 69.3518 30.6006 69.7031 31.8604 70.0276C33.7108 70.504 35.5348 69.6286 36.1605 67.9634C36.44 67.2193 36.4026 65.9873 36.0819 65.3687C35.3191 63.8955 33.0967 63.4194 32.022 64.4984C31.1269 65.3972 31.3877 66.7512 32.501 66.984C32.7559 67.0377 32.7486 67.0262 32.4361 66.8837C31.9488 66.6613 31.7372 66.3532 31.7344 65.8629C31.7282 64.7131 33.0325 64.0677 34.2458 64.6197C35.1342 65.0243 35.487 65.5527 35.487 66.479C35.487 67.9055 34.2835 68.9803 32.8829 68.8047C32.1343 68.7106 31.2188 68.2275 30.7278 67.6678C29.4926 66.2588 29.9738 64.0352 31.6985 63.1821C33.0115 62.5328 34.7568 62.6928 36.1102 63.5867C37.6652 64.6141 38.3264 65.553 39.6657 68.6346C40.1019 69.638 40.6631 70.7675 40.9126 71.1446C42.1814 73.0604 43.7015 74 45.5324 74C46.5423 74 47.302 73.8139 48.2578 73.3326C48.9679 72.9747 49.9747 72.2947 49.9021 72.2219C49.8815 72.2013 49.587 72.2937 49.2474 72.4271C47.2483 73.2137 45.2159 73.1597 44.0358 72.2881C43.2925 71.7395 42.693 70.6466 42.3848 69.2797C42.3314 69.0431 42.1556 67.9982 41.9936 66.9575C41.5833 64.32 41.1893 63.1343 40.2705 61.7737C39.3304 60.3817 37.5231 59.2135 35.5027 58.6918C34.2421 58.3663 31.9745 58.2778 30.6132 58.5012ZM26.1895 38.1085C26.4623 37.0922 27.3435 36.123 28.25 35.8421C28.8264 35.6636 30.0178 35.7776 30.578 36.0648C31.6637 36.6217 32.4518 37.8899 32.2808 38.8055C32.0722 39.9218 30.2776 40.815 28.2133 40.8297C27.1589 40.837 26.7695 40.6941 26.3668 40.1518C26.1176 39.8158 26.0231 38.7285 26.1895 38.1085ZM30.3008 36.4628C30.8422 36.7963 30.9815 37.2894 30.6632 37.7456C30.4439 38.06 29.765 38.3587 29.2689 38.3587C28.5236 38.3587 27.7106 37.8248 27.7106 37.3358C27.7106 36.3533 29.2697 35.8274 30.3008 36.4628ZM192.113 39.276C190.429 33.6814 193.206 29.0409 199.132 27.5497C200.832 27.1218 208.527 27.3149 209.845 27.8187C210.33 28.0032 210.541 28.7118 210.545 30.1679C210.548 31.3147 210.674 32.7075 210.823 33.263C211.05 34.1049 210.917 34.2705 210.028 34.257C209.223 34.2445 208.737 33.7735 208.057 32.3488C206.972 30.0732 205.658 29.3494 202.597 29.3409C198.689 29.3297 195.829 31.9577 196.294 35.1332C196.598 37.1995 198.665 39.2328 203.304 42.0279C207.718 44.6867 210.294 46.8733 211.321 48.8323C214.065 54.0698 211.721 59.6746 205.606 62.4986C202.467 63.9481 197.206 64.098 193.507 62.8433L191.138 62.0396V58.2596C191.138 54.8362 191.219 54.4789 192.001 54.4789C192.654 54.4789 192.937 54.9104 193.166 56.2619C193.737 59.6227 196.294 61.6629 199.936 61.6629C203.504 61.6629 205.998 59.7161 206.953 56.186C207.36 54.6821 207.29 54.1276 206.483 52.4687C205.516 50.4797 203.85 49.1599 198.193 45.9006C195.054 44.0918 192.834 41.6734 192.113 39.276ZM81.2208 29.7831C80.4489 29.7831 80.1477 29.5312 80.1477 28.8851C80.1477 28.0297 80.4489 27.9871 86.4974 27.9871C92.1114 27.9871 92.8299 28.0715 92.7012 28.7149C92.6205 29.1154 91.8448 29.6709 90.9763 29.9497L89.3969 30.4566L89.2622 41.9066C89.1718 49.5467 89.2988 53.9541 89.6432 55.1523C90.6674 58.7158 93.7917 60.7651 98.1997 60.7651C101.268 60.7651 103.061 60.0486 105.313 57.9205C107.736 55.6329 108.122 53.4592 108.114 42.1617C108.107 31.018 107.913 30.0983 105.516 29.8671C104.426 29.7616 104.06 29.5079 104.06 28.8568C104.06 28.045 104.42 27.9871 109.475 27.9871C114.588 27.9871 114.889 28.0369 114.889 28.8851C114.889 29.4383 114.585 29.7858 114.099 29.7898C112.009 29.8082 111.971 30.0068 111.69 42.2262C111.398 54.9156 111.125 56.4181 108.551 59.5265C107.808 60.4232 106.037 61.7253 104.615 62.4202C102.299 63.5525 101.562 63.6825 97.5182 63.6752C93.791 63.6676 92.6143 63.4877 90.7505 62.6405C88.03 61.4036 86.2608 59.8029 84.9564 57.3974C84.0459 55.7183 83.9681 54.8097 83.7574 43.4331C83.5159 30.4109 83.399 29.7831 81.2208 29.7831ZM123.44 29.7831C122.408 29.7831 122.108 29.5802 122.108 28.8851C122.108 28.0432 122.396 27.9893 126.732 28.0239L131.357 28.0607L133.569 30.6057C134.786 32.0053 138.751 36.3837 142.381 40.3348C146.011 44.2862 150.178 48.8828 151.641 50.5498C153.104 52.2171 154.482 53.5808 154.702 53.5808C154.928 53.5808 155.041 48.8717 154.96 42.765L154.818 31.9492L153.552 30.8662C152.856 30.2703 151.79 29.7831 151.183 29.7831C150.376 29.7831 150.081 29.5388 150.081 28.8725C150.081 27.9956 150.311 27.9664 156.284 28.0867C161.363 28.1891 162.488 28.3306 162.488 28.8667C162.488 29.2488 161.86 29.6498 160.98 29.8289C160.151 29.9978 159.237 30.3696 158.95 30.6551C158.579 31.0238 158.39 35.7901 158.298 47.0921L158.169 63.0099H156.861C155.736 63.0099 154.396 61.7448 147.232 53.9175C142.654 48.9163 137.311 42.9727 135.359 40.7094C133.405 38.4458 131.655 36.5767 131.469 36.5562C130.946 36.4976 131.072 56.7206 131.608 58.6402C132.026 60.136 132.313 60.3936 134.087 60.8662C135.516 61.2464 136.094 61.6322 136.094 62.2052C136.094 62.9409 135.549 63.0099 129.778 63.0099C123.902 63.0099 123.461 62.9514 123.461 62.1682C123.461 61.5949 123.886 61.2419 124.794 61.061C127.549 60.5128 127.732 59.6425 127.887 46.3397C127.973 38.8891 127.846 33.6761 127.551 32.5846C127.031 30.665 125.737 29.7831 123.44 29.7831ZM170.749 29.7831C169.782 29.7831 169.481 29.5699 169.481 28.8851C169.481 28.027 169.782 27.9871 176.249 27.9871C182.716 27.9871 183.017 28.027 183.017 28.8851C183.017 29.5438 182.716 29.7831 181.889 29.7831C181.269 29.7831 180.347 30.1954 179.84 30.6992C178.947 31.5886 178.924 32.0309 179.051 45.7779C179.175 59.1975 179.228 59.974 180.057 60.5773C180.539 60.9275 181.402 61.214 181.975 61.214C182.716 61.214 183.017 61.4729 183.017 62.1121C183.017 62.9702 182.716 63.0099 176.249 63.0099C169.936 63.0099 169.481 62.9534 169.481 62.1696C169.481 61.5374 169.924 61.2583 171.269 61.0443C173.939 60.6194 174.075 59.7495 173.909 44.227C173.776 31.7961 173.719 31.021 172.892 30.4198C172.41 30.0696 171.446 29.7831 170.749 29.7831ZM217.957 29.7831C217.34 29.7831 216.87 29.4414 216.724 28.8851C216.497 28.0167 216.711 27.9871 223.214 27.9871C229.638 27.9871 229.939 28.027 229.939 28.8851C229.939 29.5752 229.638 29.7831 228.641 29.7831C225.801 29.7831 225.864 30.2968 230.163 42.0394C232.351 48.0168 234.476 53.6948 234.884 54.657L235.626 56.4069L239.072 47.2483C243.129 36.4676 243.656 34.474 242.967 32.5077C242.487 31.1373 240.62 29.7831 239.211 29.7831C238.813 29.7831 238.512 29.397 238.512 28.8851C238.512 28.0257 238.813 27.9871 245.505 27.9871C252.198 27.9871 252.498 28.0257 252.498 28.8851C252.498 29.5241 252.198 29.7831 251.457 29.7831C249.56 29.7831 248.723 30.7898 248.996 32.7457C249.276 34.7591 257.036 56.3982 257.362 56.0744C257.891 55.5478 266.485 32.2531 266.485 31.3452C266.485 30.2573 265.72 29.7831 263.967 29.7831C263.176 29.7831 262.875 29.5357 262.875 28.8851C262.875 28.0369 263.176 27.9871 268.29 27.9871C272.882 27.9871 273.704 28.0931 273.704 28.684C273.704 29.0674 273.141 29.5761 272.454 29.8145C270.907 30.3511 270.519 30.9636 268.578 35.9247C267.727 38.1032 265.06 44.9216 262.653 51.0757C260.246 57.2305 258.172 62.5345 258.046 62.8625C257.919 63.1908 257.173 63.4591 256.387 63.4591H254.96L251.719 55.04C249.936 50.41 247.83 44.9244 247.039 42.85C245.683 39.2955 245.569 39.1411 245.059 40.1556C244.762 40.7485 242.62 46.2439 240.3 52.368L236.083 63.5031L234.508 63.3689L232.934 63.2347L226.93 47.5543C223.576 38.7936 220.492 31.4121 219.941 30.8284C219.398 30.2533 218.505 29.7831 217.957 29.7831ZM308.171 29.9735C308.096 29.803 308.096 29.19 308.096 29.19C308.096 29.19 308.079 28.9689 308.172 28.851C308.264 28.7334 308.297 28.7303 308.629 28.6988L308.632 28.6985C309.85 28.5828 312.294 28.388 314.334 28.2991C314.521 28.291 314.728 28.2816 314.954 28.2714L314.959 28.2711L314.962 28.271L314.963 28.2709C317.208 28.1692 321.225 28.0331 323.986 28.1709C329.283 28.4353 333.051 30.9926 334.335 35.2186C335.619 39.4443 334.94 43.4111 333.19 45.9361C331.439 48.4611 328.497 50.6352 323.605 50.4937C319.567 50.3769 318.486 49.6217 317.623 49.0184C317.44 48.8908 317.267 48.7699 317.079 48.6636V54.0527C317.121 57.7281 317.152 59.4934 317.437 60.1468C317.821 61.0265 318.689 61.5684 320.38 61.9839C320.38 61.9839 321.145 62.163 321.342 62.354C321.539 62.545 321.539 62.9691 321.539 62.9691C321.539 62.9691 321.58 63.3657 321.421 63.5679C321.263 63.77 320.957 63.7296 320.957 63.7296L313.468 63.6693L308.953 63.6574C308.953 63.6574 308.479 63.7481 308.301 63.5578C308.124 63.3671 308.14 62.9702 308.14 62.9702C308.14 62.9702 308.179 62.5425 308.386 62.3512C308.594 62.1595 309.365 61.9455 309.365 61.9455C311.106 61.4573 311.861 60.9408 312.256 59.9677C312.574 59.1832 312.576 57.7285 312.573 45.857C312.569 34.5989 312.553 32.4988 312.294 31.8948C311.912 31.0008 310.954 30.7639 309.59 30.4266L309.59 30.4265C309.32 30.3596 309.033 30.2888 308.732 30.2082C308.732 30.2082 308.247 30.1441 308.171 29.9735ZM329.976 39.1599C329.976 41.006 329.944 43.8963 327.976 45.7437C326.008 47.5912 322.134 48.0969 319.504 47.5825C318.674 47.4204 318.201 47.1706 317.835 46.9778L317.799 46.9587L317.125 46.6046L317.086 40.1183C317.062 36.0543 317.105 33.4065 317.2 33.028C317.288 30.885 320.453 30.6185 321.999 30.6978C328.615 30.6978 329.783 36.2652 329.976 39.1599ZM287.396 28.2386C287.396 28.2386 287.073 28.3624 286.583 28.5479L284.816 29.4592L283.544 32.6309C282.845 34.3754 281.565 37.5777 280.7 39.7472C279.126 43.6986 278.086 46.2947 276.992 49.0044C276.67 49.8015 275.698 52.2286 274.832 54.3981C273.966 56.5672 273.101 58.6318 272.909 58.9859C272.877 59.0448 272.843 59.1083 272.807 59.1752C272.323 60.0841 271.482 61.6629 269.997 61.9016C269.997 61.9016 269.18 61.9818 268.877 62.2801C268.575 62.5788 268.604 62.8228 268.604 62.8228V63.1988C268.604 63.1988 268.632 63.3811 268.803 63.4717C268.974 63.5626 269.206 63.5679 269.206 63.5679L274.64 63.5062H280.256C280.256 63.5062 280.653 63.5525 280.807 63.4257C280.96 63.2988 281.002 63.1106 281.002 63.1106V62.7147C281.002 62.7147 280.924 62.2853 280.702 62.1177C280.479 61.9504 279.646 61.8358 279.646 61.8358C277.397 61.5406 277.01 59.8422 277.288 58.3151C277.424 57.5647 278.328 54.7891 279.345 51.9947L279.697 51.029L285.582 50.984C288.818 50.9593 291.613 50.976 291.791 51.0213C292.047 51.0858 292.405 51.811 293.455 54.3942C295.045 58.3081 295.172 58.7848 294.82 59.5171C294.799 59.5617 294.776 59.6108 294.751 59.6638C294.421 60.372 293.779 61.7479 292.162 61.888C292.162 61.888 291.304 61.9177 291.091 62.1738C290.877 62.4303 290.924 62.7252 290.924 62.7252V63.1169C290.924 63.1169 290.981 63.3466 291.091 63.4375C291.201 63.5285 291.387 63.5055 291.387 63.5055L296.729 63.4672L304.237 63.4668C304.237 63.4668 304.532 63.4982 304.612 63.3853C304.692 63.272 304.709 63.1389 304.709 63.1389V62.6185C304.709 62.6185 304.676 62.3418 304.532 62.1892C304.387 62.0368 303.413 61.8758 303.413 61.8758C302.17 61.6754 301.55 60.6501 301.089 59.8865C300.971 59.6917 300.864 59.5139 300.759 59.3714C300.545 59.0804 299.782 57.4856 299.184 55.9518C298.586 54.4179 297.237 50.953 296.186 48.2524C295.135 45.5517 293.668 41.7843 292.927 39.8807C292.185 37.9767 290.776 34.3542 289.795 31.8306C289.635 31.4164 289.49 31.0444 289.361 30.7113L289.361 30.7098C288.703 29.015 288.438 28.3311 288.365 28.2386C288.128 27.938 287.396 28.2386 287.396 28.2386ZM287.046 38.5514C286.809 37.976 286.392 36.9437 286.119 36.2575C285.624 35.0101 285.436 34.7228 285.282 34.9805C285.238 35.0558 284.926 35.9083 284.589 36.8751C282.412 43.1344 281.426 45.9528 281.228 46.484C281.104 46.8179 281.002 47.1618 281.002 47.2486C281.002 47.3483 282.773 47.4065 285.808 47.4065C288.451 47.4065 290.613 47.3737 290.613 47.3337C290.613 47.2936 290.378 46.6962 290.09 46.0055C289.801 45.3147 289.096 43.5906 288.522 42.1739C287.948 40.7572 287.284 39.1272 287.046 38.5514Z" fill="white"/>
</svg>
